<svg xmlns="http://www.w3.org/2000/svg" xmlns:xlink="http://www.w3.org/1999/xlink" width="123" height="123" viewBox="0 0 123 123">
  <defs>
    <radialGradient id="radial-gradient" cx="0.5" cy="0.5" r="0.5" gradientUnits="objectBoundingBox">
      <stop offset="0" stop-color="#fffca5"/>
      <stop offset="0.912" stop-color="#fff7a1"/>
      <stop offset="1" stop-color="#ffe1a4"/>
      <stop offset="1" stop-color="#807647"/>
    </radialGradient>
    <clipPath id="clip-path">
      <rect width="106" height="59" fill="none"/>
    </clipPath>
    <clipPath id="clip-path-2">
      <rect width="94" height="46" fill="none"/>
    </clipPath>
    <clipPath id="clip-pathfinder_icon">
      <rect width="123" height="123"/>
    </clipPath>
  </defs>
  <g id="pathfinder_icon" clip-path="url(#clip-pathfinder_icon)">
    <path id="Path_1" data-name="Path 1" d="M61.5,0A61.5,61.5,0,1,1,0,61.5,61.5,61.5,0,0,1,61.5,0Z" fill="url(#radial-gradient)"/>
    <g id="Repeat_Grid_5" data-name="Repeat Grid 5" transform="translate(9 6)" clip-path="url(#clip-path)">
      <g transform="translate(-9 -6)">
        <g id="Subtraction_1" data-name="Subtraction 1" transform="translate(9 6)" fill="none">
          <path d="M106,62H0A70.752,70.752,0,0,1,4.165,37.867,63.272,63.272,0,0,1,15.523,18.159,53.212,53.212,0,0,1,32.37,4.872a46.112,46.112,0,0,1,41.26,0A53.212,53.212,0,0,1,90.477,18.159a63.273,63.273,0,0,1,11.358,19.708A70.755,70.755,0,0,1,106,62Z" stroke="none"/>
          <path d="M 102.9369277954102 59.00040054321289 C 102.6437072753906 52.03964996337891 101.3276443481445 45.28694915771484 99.01366424560547 38.88698196411133 C 96.46755218505859 31.84501647949219 92.82804870605469 25.527099609375 88.19626617431641 20.10871696472168 C 83.59383392333984 14.72466659545898 78.24546813964844 10.50304985046387 72.29972076416016 7.561117172241211 C 66.18292999267578 4.534583568572998 59.68971633911133 3.000000238418579 53.00043487548828 3.000000238418579 C 46.31088256835938 3.000000238418579 39.81748199462891 4.534583568572998 33.70058441162109 7.561117172241211 C 27.75471687316895 10.50303363800049 22.40625 14.72466659545898 17.80373382568359 20.10873413085938 C 13.17190074920654 25.527099609375 9.532383918762207 31.84501647949219 6.986250400543213 38.88698196411133 C 4.672286987304688 45.286865234375 3.356198310852051 52.03984069824219 3.062960624694824 59.00040054321289 L 102.9369277954102 59.00040054321289 M 105.9999008178711 62.00040054321289 L 4.089355343239731e-07 62.00040054321289 C 4.089355343239731e-07 53.6289176940918 1.40166711807251 45.50965118408203 4.165000438690186 37.86691665649414 C 6.834433555603027 30.48391723632813 10.65595054626465 23.85334968566895 15.52336692810059 18.15938377380371 C 20.39080047607422 12.46541690826416 26.05886650085449 7.994983673095703 32.37016677856445 4.872250080108643 C 38.90431594848633 1.639266967773438 45.84535217285156 2.716064386731887e-07 53.00043487548828 2.716064386731887e-07 C 60.15526580810547 2.716064386731887e-07 67.09609985351563 1.639266967773438 73.63013458251953 4.872250080108643 C 79.9412841796875 7.994983673095703 85.60928344726563 12.46541690826416 90.47665405273438 18.15938377380371 C 95.34403228759766 23.85338401794434 99.16549682617188 30.48393440246582 101.8349151611328 37.86691665649414 C 104.5984191894531 45.51016616821289 105.9997329711914 53.62941741943359 105.9999008178711 61.99916839599609 L 105.9999008178711 62.00040054321289 Z" stroke="none" fill="#443535"/>
        </g>
      </g>
    </g>
    <g id="Repeat_Grid_4" data-name="Repeat Grid 4" transform="translate(109 112) rotate(180)" clip-path="url(#clip-path-2)">
      <g transform="translate(-15 -60)">
        <g id="Subtraction_1-2" data-name="Subtraction 1" transform="translate(15 60)" fill="none">
          <path d="M94,52H0A56.459,56.459,0,0,1,3.693,31.759,52.448,52.448,0,0,1,13.766,15.23,46.889,46.889,0,0,1,28.706,4.086a42.995,42.995,0,0,1,36.589,0A46.889,46.889,0,0,1,80.234,15.23,52.449,52.449,0,0,1,90.306,31.759,56.461,56.461,0,0,1,94,52Z" stroke="none"/>
          <path d="M 87.65634155273438 46.00040054321289 C 87.17421722412109 41.83489608764648 86.18621826171875 37.78434753417969 84.70201110839844 33.90192794799805 C 82.60071563720703 28.40530967712402 79.59983062744141 23.47692680358887 75.78271484375 19.2536735534668 C 72.00501251220703 15.07401847839355 67.62068176269531 11.79940032958984 62.75155258178711 9.520800590515137 C 57.75920867919922 7.184564113616943 52.45973587036133 6.000000476837158 47.00037384033203 6.000000476837158 C 41.540771484375 6.000000476837158 36.24113464355469 7.184582233428955 31.24868202209473 9.520800590515137 C 26.37946319580078 11.79940032958984 21.99504470825195 15.07403659820557 18.21724510192871 19.25370979309082 C 14.40013599395752 23.47689056396484 11.399245262146 28.40525436401367 9.297918319702148 33.90190887451172 C 7.813611030578613 37.78459167480469 6.825654983520508 41.83470916748047 6.343565464019775 46.00040054321289 L 87.65634155273438 46.00040054321289 M 93.99991607666016 52.00040054321289 L 8.769087799009867e-06 52.00040054321289 C 8.769087799009867e-06 44.97914505004883 1.242990612983704 38.16943740844727 3.6934814453125 31.7593994140625 C 6.060718059539795 25.56718254089355 9.44960880279541 20.00605392456055 13.7660083770752 15.23047256469727 C 18.0824089050293 10.45489120483398 23.10880851745605 6.705472946166992 28.70560836791992 4.086400508880615 C 34.50004577636719 1.374873042106628 40.65530014038086 2.716064386731887e-07 47.00037384033203 2.716064386731887e-07 C 53.3452262878418 2.716064386731887e-07 59.50031661987305 1.374873042106628 65.29464721679688 4.086400508880615 C 70.89131927490234 6.705472946166992 75.91766357421875 10.45489120483398 80.23399353027344 15.23047256469727 C 84.55035400390625 20.0060920715332 87.93922424316406 25.56719970703125 90.30644226074219 31.7593994140625 C 92.757080078125 38.16985321044922 93.999755859375 44.97956466674805 93.99991607666016 51.99936294555664 L 93.99991607666016 52.00040054321289 Z" stroke="none" fill="#443535"/>
        </g>
      </g>
    </g>
    <line id="Line_1" data-name="Line 1" y2="17" transform="translate(47.5 48.5)" fill="none" stroke="#443535" stroke-width="5"/>
    <line id="Line_2" data-name="Line 2" y2="17" transform="translate(77.5 48.5)" fill="none" stroke="#443535" stroke-width="5"/>
  </g>
</svg>
